<?xml version="1.0" encoding="UTF-8" standalone="no"?>
<svg width="117px" height="34px" viewBox="0 0 117 34" version="1.1" xmlns="http://www.w3.org/2000/svg" xmlns:xlink="http://www.w3.org/1999/xlink" xmlns:sketch="http://www.bohemiancoding.com/sketch/ns">
    <!-- Generator: Sketch 3.4.2 (15855) - http://www.bohemiancoding.com/sketch -->
    <title>bringit-teal</title>
    <desc>Created with Sketch.</desc>
    <defs></defs>
    <g id="ladies" stroke="none" stroke-width="1" fill="none" fill-rule="evenodd" sketch:type="MSPage">
        <g id="bringit-teal" sketch:type="MSLayerGroup" fill="#30D8C3">
            <g id="bringit" sketch:type="MSShapeGroup">
                <g id="Page-1">
                    <g id="Desktop-HD-Copy-2">
                        <g id="nav">
                            <g id="bringit">
                                <path d="M16.6562133,0.53152 L26.1947733,0.53152 C27.1163779,0.53152 28.0264488,0.640958906 28.9250133,0.85984 C29.8235778,1.07872109 30.6242098,1.43583752 31.3269333,1.9312 C32.0296568,2.42656248 32.5998911,3.06591608 33.0376533,3.84928 C33.4754155,4.63264392 33.6942933,5.57727447 33.6942933,6.6832 C33.6942933,8.06560691 33.3026172,9.20607551 32.5192533,10.10464 C31.7358894,11.0032045 30.7106196,11.648318 29.4434133,12.04 L29.4434133,12.10912 C30.987101,12.316481 32.2542884,12.915515 33.2450133,13.90624 C34.2357383,14.896965 34.7310933,16.2217517 34.7310933,17.88064 C34.7310933,19.2169667 34.466136,20.3401554 33.9362133,21.25024 C33.4062907,22.1603246 32.7093376,22.8918372 31.8453333,23.4448 C30.981329,23.9977628 29.9906189,24.3951988 28.8731733,24.63712 C27.7557277,24.8790412 26.6210191,25 25.4690133,25 L16.6562133,25 L16.6562133,0.53152 L16.6562133,0.53152 Z M21.0107733,10.4848 L24.8814933,10.4848 C26.3330206,10.4848 27.4389295,10.1968029 28.1992533,9.6208 C28.9595771,9.04479712 29.3397333,8.2268853 29.3397333,7.16704 C29.3397333,6.06111447 28.9480572,5.2777623 28.1646933,4.81696 C27.3813294,4.3561577 26.1602216,4.12576 24.5013333,4.12576 L21.0107733,4.12576 L21.0107733,10.4848 L21.0107733,10.4848 Z M21.0107733,21.33664 L24.9160533,21.33664 C25.4690161,21.33664 26.0680501,21.2963204 26.7131733,21.21568 C27.3582965,21.1350396 27.9515706,20.9680013 28.4930133,20.71456 C29.034456,20.4611187 29.4837315,20.0924824 29.8408533,19.60864 C30.1979751,19.1247976 30.3765333,18.479684 30.3765333,17.67328 C30.3765333,16.3830335 29.9387777,15.4844825 29.0632533,14.9776 C28.1877289,14.4707175 26.8629422,14.21728 25.0888533,14.21728 L21.0107733,14.21728 L21.0107733,21.33664 L21.0107733,21.33664 Z M38.0091733,8.4112 L41.9835733,8.4112 L41.9835733,11.176 L42.0526933,11.176 C42.5134956,10.2083152 43.1586092,9.424963 43.9880533,8.82592 C44.8174975,8.226877 45.7851678,7.92736 46.8910933,7.92736 C47.0523741,7.92736 47.2251724,7.93311994 47.4094933,7.94464 C47.5938142,7.95616006 47.7550926,7.98495977 47.8933333,8.03104 L47.8933333,11.83264 C47.6168519,11.7635197 47.3806943,11.7174401 47.1848533,11.6944 C46.9890123,11.6713599 46.7989342,11.65984 46.6146133,11.65984 C45.6699686,11.65984 44.9096562,11.8326383 44.3336533,12.17824 C43.7576504,12.5238417 43.3083749,12.9385576 42.9858133,13.4224 C42.6632517,13.9062424 42.4443739,14.4015975 42.3291733,14.90848 C42.2139727,15.4153625 42.1563733,15.8185585 42.1563733,16.11808 L42.1563733,25 L38.0091733,25 L38.0091733,8.4112 L38.0091733,8.4112 Z M49.8581333,8.4112 L54.0053333,8.4112 L54.0053333,25 L49.8581333,25 L49.8581333,8.4112 L49.8581333,8.4112 Z M49.2706133,2.77792 C49.2706133,2.10975666 49.5182908,1.52800248 50.0136533,1.03264 C50.5090158,0.537277523 51.1368495,0.2896 51.8971733,0.2896 C52.6574971,0.2896 53.2968507,0.525757638 53.8152533,0.99808 C54.3336559,1.47040236 54.5928533,2.06367643 54.5928533,2.77792 C54.5928533,3.49216357 54.3336559,4.08543764 53.8152533,4.55776 C53.2968507,5.03008236 52.6574971,5.26624 51.8971733,5.26624 C51.1368495,5.26624 50.5090158,5.01856248 50.0136533,4.5232 C49.5182908,4.02783752 49.2706133,3.44608334 49.2706133,2.77792 L49.2706133,2.77792 L49.2706133,2.77792 Z M58.2510933,8.4112 L62.1909333,8.4112 L62.1909333,11.07232 L62.2600533,11.07232 C62.6286952,10.2428759 63.2680488,9.51136317 64.1781333,8.87776 C65.0882179,8.24415683 66.1653271,7.92736 67.4094933,7.92736 C68.4923787,7.92736 69.4197295,8.1174381 70.1915733,8.4976 C70.9634172,8.8777619 71.5970108,9.37887689 72.0923733,10.00096 C72.5877358,10.6230431 72.9506122,11.337276 73.1810133,12.14368 C73.4114145,12.950084 73.5266133,13.7795157 73.5266133,14.632 L73.5266133,25 L69.3794133,25 L69.3794133,15.80704 C69.3794133,15.3231976 69.3448537,14.8163226 69.2757333,14.2864 C69.206613,13.7564774 69.0568545,13.2784021 68.8264533,12.85216 C68.5960522,12.4259179 68.2792553,12.0745614 67.8760533,11.79808 C67.4728513,11.5215986 66.9371767,11.38336 66.2690133,11.38336 C65.60085,11.38336 65.0248557,11.5158387 64.5410133,11.7808 C64.0571709,12.0457613 63.6597349,12.3855979 63.3486933,12.80032 C63.0376518,13.2150421 62.8014941,13.6931173 62.6402133,14.23456 C62.4789325,14.7760027 62.3982933,15.3231972 62.3982933,15.87616 L62.3982933,25 L58.2510933,25 L58.2510933,8.4112 L58.2510933,8.4112 Z M94.4302933,8.4112 L94.4302933,23.51392 C94.4302933,25.0115275 94.2459752,26.365114 93.8773333,27.57472 C93.5086915,28.784326 92.9384572,29.8095958 92.1666133,30.65056 C91.3947695,31.4915242 90.4213392,32.1423977 89.2462933,32.6032 C88.0712474,33.0640023 86.6773414,33.2944 85.0645333,33.2944 C84.39637,33.2944 83.6878971,33.2368006 82.9390933,33.1216 C82.1902896,33.0063994 81.4530169,32.8336012 80.7272533,32.6032 C80.0014897,32.3727988 79.3045367,32.0848017 78.6363733,31.7392 C77.96821,31.3935983 77.369176,31.0019222 76.8392533,30.56416 L79.2238933,27.35008 C80.0302973,28.1104038 80.9403682,28.692158 81.9541333,29.09536 C82.9678984,29.498562 83.9931681,29.70016 85.0299733,29.70016 C86.0206983,29.70016 86.8558899,29.5561614 87.5355733,29.26816 C88.2152567,28.9801586 88.7566913,28.5827225 89.1598933,28.07584 C89.5630953,27.5689575 89.8510924,26.9699235 90.0238933,26.27872 C90.1966942,25.5875165 90.2830933,24.8272041 90.2830933,23.99776 L90.2830933,22.78816 L90.2139733,22.78816 C89.6149303,23.594564 88.848858,24.2108779 87.9157333,24.63712 C86.9826086,25.0633621 85.9400591,25.27648 84.7880533,25.27648 C83.5438871,25.27648 82.4149384,25.0460823 81.4011733,24.58528 C80.3874082,24.1244777 79.5291768,23.5024039 78.8264533,22.71904 C78.1237298,21.9356761 77.5765353,21.0198452 77.1848533,19.97152 C76.7931714,18.9231948 76.5973333,17.8115259 76.5973333,16.63648 C76.5973333,15.438394 76.7874114,14.3094453 77.1675733,13.2496 C77.5477352,12.1897547 78.0891698,11.2681639 78.7918933,10.4848 C79.4946168,9.70143608 80.3470883,9.0793623 81.3493333,8.61856 C82.3515783,8.1577577 83.4747671,7.92736 84.7189333,7.92736 C85.8939792,7.92736 86.9883682,8.16927758 88.0021333,8.65312 C89.0158984,9.13696242 89.8222903,9.88575493 90.4213333,10.89952 L90.4904533,10.89952 L90.4904533,8.4112 L94.4302933,8.4112 L94.4302933,8.4112 Z M85.5829333,11.31424 C84.8226095,11.31424 84.1486962,11.4524786 83.5611733,11.72896 C82.9736504,12.0054414 82.4782953,12.3798376 82.0750933,12.85216 C81.6718913,13.3244824 81.3608544,13.8831968 81.1419733,14.52832 C80.9230922,15.1734432 80.8136533,15.8646363 80.8136533,16.60192 C80.8136533,17.2700833 80.9230922,17.9151969 81.1419733,18.53728 C81.3608544,19.1593631 81.6718913,19.7180775 82.0750933,20.21344 C82.4782953,20.7088025 82.9736504,21.1062385 83.5611733,21.40576 C84.1486962,21.7052815 84.8110896,21.85504 85.5483733,21.85504 C86.3086971,21.85504 86.9941303,21.7110414 87.6046933,21.42304 C88.2152564,21.1350386 88.7336512,20.7491224 89.1598933,20.26528 C89.5861354,19.7814376 89.9144522,19.2227232 90.1448533,18.58912 C90.3752545,17.9555168 90.4904533,17.2931235 90.4904533,16.60192 C90.4904533,15.8876764 90.3752545,15.2080032 90.1448533,14.56288 C89.9144522,13.9177568 89.5861354,13.3532824 89.1598933,12.86944 C88.7336512,12.3855976 88.2210163,12.0054414 87.6219733,11.72896 C87.0229303,11.4524786 86.3432571,11.31424 85.5829333,11.31424 L85.5829333,11.31424 L85.5829333,11.31424 Z M98.8142933,0.53152 L103.168853,0.53152 L103.168853,25 L98.8142933,25 L98.8142933,0.53152 L98.8142933,0.53152 Z M105.168213,11.72896 L105.168213,8.4112 L108.071253,8.4112 L108.071253,3.60736 L112.149333,3.60736 L112.149333,8.4112 L116.296533,8.4112 L116.296533,11.72896 L112.149333,11.72896 L112.149333,19.43584 C112.149333,20.1731237 112.281812,20.7836776 112.546773,21.26752 C112.811735,21.7513624 113.405009,21.99328 114.326613,21.99328 C114.603095,21.99328 114.902612,21.9644803 115.225173,21.90688 C115.547735,21.8492797 115.835732,21.7628806 116.089173,21.64768 L116.227413,24.89632 C115.858771,25.0345607 115.421016,25.1439996 114.914133,25.22464 C114.407251,25.3052804 113.923416,25.3456 113.462613,25.3456 C112.356688,25.3456 111.458137,25.1900816 110.766933,24.87904 C110.07573,24.5679984 109.528535,24.1417627 109.125333,23.60032 C108.722131,23.0588773 108.445654,22.4368035 108.295893,21.73408 C108.146133,21.0313565 108.071253,20.276804 108.071253,19.4704 L108.071253,11.72896 L105.168213,11.72896 L105.168213,11.72896 Z" id="BringIt-Copy-2"></path>
                                <path d="M2.04681821,4.23576001 C0.963208571,4.23576001 0,3.33789213 0,2.32779077 C0,1.3176894 0.963208571,0.419821524 2.04681821,0.419821524 L17.0969521,0.419821524 C18.1805618,0.419821524 19.1437703,1.3176894 19.1437703,2.32779077 C19.1437703,3.33789213 18.1805618,4.23576001 17.0969521,4.23576001 L2.04681821,4.23576001 L2.04681821,4.23576001 L2.04681821,4.23576001 Z M4.58045692,15.1619687 C3.49684728,15.1619687 2.53363871,14.2641008 2.53363871,13.2539994 C2.53363871,12.2438981 3.49684728,11.3460302 4.58045692,11.3460302 L19.6305908,11.3460302 C20.7142005,11.3460302 21.677409,12.2438981 21.677409,13.2539994 C21.677409,14.2641008 20.7142005,15.1619687 19.6305908,15.1619687 L4.58045692,15.1619687 L4.58045692,15.1619687 L4.58045692,15.1619687 Z M10.0096827,25.0881773 C8.92607308,25.0881773 7.9628645,24.1903094 7.9628645,23.1802081 C7.9628645,22.1701067 8.92607308,21.2722388 10.0096827,21.2722388 L25.0598166,21.2722388 C26.1434263,21.2722388 27.1066348,22.1701067 27.1066348,23.1802081 C27.1066348,24.1903094 26.1434263,25.0881773 25.0598166,25.0881773 L10.0096827,25.0881773 L10.0096827,25.0881773 L10.0096827,25.0881773 Z" id="Shape"></path>
                            </g>
                        </g>
                    </g>
                </g>
            </g>
        </g>
    </g>
</svg>